<mxfile host="drawio-plugin" modified="2022-07-22T14:11:50.250Z" agent="5.0 (Macintosh; Intel Mac OS X 10_15_7) AppleWebKit/537.36 (KHTML, like Gecko) Chrome/97.0.4692.45 Safari/537.36" etag="qLhKdFrBYwxkSQ74OlsU" version="15.5.4" type="embed"><diagram id="23iRSUPoRavnBvh4doch" name="Page-1"><mxGraphModel dx="673" dy="661" grid="1" gridSize="10" guides="1" tooltips="1" connect="1" arrows="1" fold="1" page="1" pageScale="1" pageWidth="827" pageHeight="1169" math="1" shadow="0"><root><mxCell id="0"/><mxCell id="1" parent="0"/><mxCell id="3tLK-R1qEs0SOCNm2qtp-1" value="Environment" style="shape=umlFrame;whiteSpace=wrap;html=1;width=90;height=30;fontSize=14;fillColor=#76608a;fontColor=#ffffff;strokeColor=#432D57;" parent="1" vertex="1"><mxGeometry x="449" y="440" width="240" height="90" as="geometry"/></mxCell><mxCell id="3tLK-R1qEs0SOCNm2qtp-2" style="edgeStyle=orthogonalEdgeStyle;rounded=1;orthogonalLoop=1;jettySize=auto;html=1;exitX=0;exitY=0.5;exitDx=0;exitDy=0;fontSize=14;strokeColor=#8000FF;strokeWidth=2;fillColor=#6a00ff;" parent="1" edge="1"><mxGeometry relative="1" as="geometry"><Array as="points"><mxPoint x="390" y="490"/><mxPoint x="390" y="260"/></Array><mxPoint x="540" y="490" as="sourcePoint"/><mxPoint x="440" y="260" as="targetPoint"/></mxGeometry></mxCell><mxCell id="3tLK-R1qEs0SOCNm2qtp-4" style="edgeStyle=orthogonalEdgeStyle;rounded=1;orthogonalLoop=1;jettySize=auto;html=1;fontSize=14;strokeColor=#8000FF;strokeWidth=2;fillColor=#6a00ff;" parent="1" source="3tLK-R1qEs0SOCNm2qtp-6" target="3tLK-R1qEs0SOCNm2qtp-29" edge="1"><mxGeometry relative="1" as="geometry"><mxPoint x="119" y="355" as="targetPoint"/><Array as="points"><mxPoint x="39" y="490"/><mxPoint x="39" y="175"/></Array></mxGeometry></mxCell><mxCell id="3tLK-R1qEs0SOCNm2qtp-5" value="Observations&lt;br&gt;&amp;nbsp;\( (\mathbf{o_{l1}}, \mathbf{o_{l2}}) \in \mathbb{O}\)" style="edgeStyle=orthogonalEdgeStyle;rounded=1;orthogonalLoop=1;jettySize=auto;html=1;fontSize=14;strokeColor=#8000FF;strokeWidth=2;fillColor=#6a00ff;labelBackgroundColor=#F5F5F5;fontColor=#8000FF;" parent="1" source="3tLK-R1qEs0SOCNm2qtp-6" target="3tLK-R1qEs0SOCNm2qtp-12" edge="1"><mxGeometry x="-0.4776" y="-20" relative="1" as="geometry"><Array as="points"><mxPoint x="39" y="490"/><mxPoint x="39" y="105"/></Array><mxPoint as="offset"/><mxPoint x="119" y="185" as="targetPoint"/></mxGeometry></mxCell><mxCell id="3tLK-R1qEs0SOCNm2qtp-6" value="Compute next state" style="rounded=0;whiteSpace=wrap;html=1;fontSize=14;fillColor=#76608a;fontColor=#ffffff;strokeColor=#432D57;" parent="1" vertex="1"><mxGeometry x="539" y="470" width="115" height="40" as="geometry"/></mxCell><mxCell id="3tLK-R1qEs0SOCNm2qtp-7" value="\(\mathbf{a_{l1}} \in \mathbb{A}_{l1}\)" style="edgeStyle=orthogonalEdgeStyle;rounded=1;orthogonalLoop=1;jettySize=auto;html=1;entryX=1;entryY=0.5;entryDx=0;entryDy=0;fontSize=14;strokeWidth=2;fillColor=#76608a;strokeColor=#49315E;exitX=1;exitY=0.5;exitDx=0;exitDy=0;fontColor=#49315E;labelBackgroundColor=#F5F5F5;spacingRight=12;spacingTop=8;" parent="1" source="3tLK-R1qEs0SOCNm2qtp-46" target="3tLK-R1qEs0SOCNm2qtp-6" edge="1"><mxGeometry x="-0.6391" y="-30" relative="1" as="geometry"><Array as="points"><mxPoint x="790" y="145"/><mxPoint x="790" y="490"/></Array><mxPoint as="offset"/></mxGeometry></mxCell><mxCell id="3tLK-R1qEs0SOCNm2qtp-8" value="Learning agent l1" style="shape=umlFrame;whiteSpace=wrap;html=1;width=121;height=20;fontSize=14;fillColor=#76608a;fontColor=#ffffff;strokeColor=#432D57;" parent="1" vertex="1"><mxGeometry x="419" y="80" width="330" height="200" as="geometry"/></mxCell><mxCell id="3tLK-R1qEs0SOCNm2qtp-12" value="Judging agent j1" style="shape=umlFrame;whiteSpace=wrap;html=1;fontSize=14;width=121;height=20;fillColor=#647687;fontColor=#ffffff;strokeColor=#314354;" parent="1" vertex="1"><mxGeometry x="69" y="80" width="160" height="50" as="geometry"/></mxCell><mxCell id="3tLK-R1qEs0SOCNm2qtp-15" value="\( r_{l1,j1} \)" style="edgeStyle=orthogonalEdgeStyle;rounded=1;orthogonalLoop=1;jettySize=auto;html=1;entryX=0;entryY=0;entryDx=0;entryDy=16;fontSize=12;strokeColor=#0080FF;strokeWidth=2;fillColor=#1ba1e2;entryPerimeter=0;fontColor=#0080FF;labelBackgroundColor=#F5F5F5;" parent="1" source="3tLK-R1qEs0SOCNm2qtp-12" target="3tLK-R1qEs0SOCNm2qtp-33" edge="1"><mxGeometry x="0.5953" y="16" relative="1" as="geometry"><mxPoint x="219" y="185" as="sourcePoint"/><mxPoint x="299" y="200" as="targetPoint"/><Array as="points"><mxPoint x="270" y="105"/><mxPoint x="270" y="236"/></Array><mxPoint as="offset"/></mxGeometry></mxCell><mxCell id="3tLK-R1qEs0SOCNm2qtp-22" value="\( r_{l1,j2} \)" style="edgeStyle=orthogonalEdgeStyle;rounded=1;orthogonalLoop=1;jettySize=auto;html=1;fontSize=12;strokeColor=#0080FF;strokeWidth=2;fillColor=#1ba1e2;entryX=0;entryY=0.5;entryDx=0;entryDy=0;entryPerimeter=0;fontColor=#0080FF;labelBackgroundColor=#F5F5F5;" parent="1" source="3tLK-R1qEs0SOCNm2qtp-29" target="3tLK-R1qEs0SOCNm2qtp-33" edge="1"><mxGeometry x="0.5071" y="-5" relative="1" as="geometry"><Array as="points"><mxPoint x="250" y="175"/><mxPoint x="250" y="245"/></Array><mxPoint x="219" y="355" as="sourcePoint"/><mxPoint x="349" y="250" as="targetPoint"/><mxPoint as="offset"/></mxGeometry></mxCell><mxCell id="3tLK-R1qEs0SOCNm2qtp-29" value="Judging agent j2" style="shape=umlFrame;whiteSpace=wrap;html=1;fontSize=14;width=121;height=20;fillColor=#647687;fontColor=#ffffff;strokeColor=#314354;" parent="1" vertex="1"><mxGeometry x="69" y="150" width="160" height="50" as="geometry"/></mxCell><mxCell id="3tLK-R1qEs0SOCNm2qtp-35" style="edgeStyle=orthogonalEdgeStyle;rounded=1;orthogonalLoop=1;jettySize=auto;html=1;entryX=0;entryY=0.75;entryDx=0;entryDy=0;fontSize=14;strokeWidth=2;strokeColor=#006600;" parent="1" source="3tLK-R1qEs0SOCNm2qtp-33" target="3tLK-R1qEs0SOCNm2qtp-34" edge="1"><mxGeometry relative="1" as="geometry"><Array as="points"><mxPoint x="529" y="245"/><mxPoint x="529" y="208"/></Array></mxGeometry></mxCell><mxCell id="3tLK-R1qEs0SOCNm2qtp-33" value="Exploration&lt;br&gt;Profiles" style="shape=cylinder3;whiteSpace=wrap;html=1;boundedLbl=1;backgroundOutline=1;size=7;fillColor=#6d8764;fontColor=#ffffff;strokeColor=#3A5431;rounded=0;fontSize=14;" parent="1" vertex="1"><mxGeometry x="439" y="220" width="80" height="50" as="geometry"/></mxCell><mxCell id="3tLK-R1qEs0SOCNm2qtp-44" style="rounded=0;orthogonalLoop=1;jettySize=auto;html=1;exitX=1;exitY=0.5;exitDx=0;exitDy=0;entryX=0.5;entryY=0;entryDx=0;entryDy=0;fontSize=14;fontColor=#006600;strokeColor=#006600;strokeWidth=2;" parent="1" source="3tLK-R1qEs0SOCNm2qtp-34" target="3tLK-R1qEs0SOCNm2qtp-43" edge="1"><mxGeometry relative="1" as="geometry"/></mxCell><mxCell id="3tLK-R1qEs0SOCNm2qtp-47" style="edgeStyle=none;rounded=0;orthogonalLoop=1;jettySize=auto;html=1;entryX=0.5;entryY=1;entryDx=0;entryDy=0;fontSize=14;fontColor=#006600;strokeColor=#006600;strokeWidth=2;" parent="1" source="3tLK-R1qEs0SOCNm2qtp-34" target="3tLK-R1qEs0SOCNm2qtp-46" edge="1"><mxGeometry relative="1" as="geometry"/></mxCell><mxCell id="3tLK-R1qEs0SOCNm2qtp-34" value="Dilemma&lt;br&gt;Identification" style="rounded=0;whiteSpace=wrap;html=1;fontSize=14;fillColor=#6d8764;fontColor=#ffffff;strokeColor=#3A5431;" parent="1" vertex="1"><mxGeometry x="549" y="170" width="100" height="50" as="geometry"/></mxCell><mxCell id="3tLK-R1qEs0SOCNm2qtp-42" style="edgeStyle=orthogonalEdgeStyle;rounded=1;orthogonalLoop=1;jettySize=auto;html=1;entryX=0;entryY=0.25;entryDx=0;entryDy=0;fontSize=14;fontColor=#006600;strokeColor=#006600;strokeWidth=2;" parent="1" source="3tLK-R1qEs0SOCNm2qtp-37" target="3tLK-R1qEs0SOCNm2qtp-34" edge="1"><mxGeometry relative="1" as="geometry"><Array as="points"><mxPoint x="529" y="145"/><mxPoint x="529" y="183"/></Array></mxGeometry></mxCell><mxCell id="3tLK-R1qEs0SOCNm2qtp-48" value="Contextualized&lt;br&gt;preferences" style="edgeStyle=orthogonalEdgeStyle;rounded=0;orthogonalLoop=1;jettySize=auto;html=1;exitX=1;exitY=0.5;exitDx=0;exitDy=0;exitPerimeter=0;entryX=0;entryY=0.5;entryDx=0;entryDy=0;fontSize=14;fontColor=#006600;strokeColor=#006600;strokeWidth=2;labelBackgroundColor=#F5F5F5;" parent="1" source="3tLK-R1qEs0SOCNm2qtp-37" target="3tLK-R1qEs0SOCNm2qtp-46" edge="1"><mxGeometry x="0.0125" y="25" relative="1" as="geometry"><mxPoint as="offset"/></mxGeometry></mxCell><mxCell id="3tLK-R1qEs0SOCNm2qtp-37" value="Human&lt;br&gt;Profile" style="shape=cylinder3;whiteSpace=wrap;html=1;boundedLbl=1;backgroundOutline=1;size=7;fillColor=#6d8764;fontColor=#ffffff;strokeColor=#3A5431;rounded=0;fontSize=14;" parent="1" vertex="1"><mxGeometry x="439" y="120" width="60" height="50" as="geometry"/></mxCell><mxCell id="3tLK-R1qEs0SOCNm2qtp-40" style="edgeStyle=orthogonalEdgeStyle;rounded=1;orthogonalLoop=1;jettySize=auto;html=1;fontSize=14;fontColor=#006600;strokeColor=#006600;strokeWidth=2;entryX=0;entryY=0;entryDx=0;entryDy=16;entryPerimeter=0;" parent="1" source="3tLK-R1qEs0SOCNm2qtp-38" target="3tLK-R1qEs0SOCNm2qtp-37" edge="1"><mxGeometry relative="1" as="geometry"><mxPoint x="384" y="180" as="targetPoint"/><Array as="points"><mxPoint x="384" y="136"/></Array></mxGeometry></mxCell><mxCell id="3tLK-R1qEs0SOCNm2qtp-38" value="Human&lt;br&gt;User" style="shape=umlActor;verticalLabelPosition=middle;verticalAlign=middle;html=1;outlineConnect=0;fontSize=14;fillColor=#6d8764;fontColor=#006600;strokeColor=#3A5431;labelBackgroundColor=#F5F5F5;labelPosition=left;align=right;" parent="1" vertex="1"><mxGeometry x="369" y="20" width="30" height="60" as="geometry"/></mxCell><mxCell id="3tLK-R1qEs0SOCNm2qtp-49" value="Actions &lt;br&gt;\( (\mathbf{a_{l1}}, \mathbf{a_{l2}}) \in \mathbb{A}\)" style="edgeStyle=orthogonalEdgeStyle;rounded=1;orthogonalLoop=1;jettySize=auto;html=1;entryX=1;entryY=0.5;entryDx=0;entryDy=0;fontSize=14;fontColor=#49315E;strokeColor=#49315E;strokeWidth=2;labelBackgroundColor=#F5F5F5;" parent="1" source="3tLK-R1qEs0SOCNm2qtp-43" target="3tLK-R1qEs0SOCNm2qtp-6" edge="1"><mxGeometry x="0.6" y="-20" relative="1" as="geometry"><Array as="points"><mxPoint x="790" y="245"/><mxPoint x="790" y="490"/></Array><mxPoint as="offset"/></mxGeometry></mxCell><mxCell id="3tLK-R1qEs0SOCNm2qtp-43" value="Take best action" style="rounded=0;whiteSpace=wrap;html=1;labelBackgroundColor=none;fontSize=14;fontColor=#ffffff;fillColor=#6d8764;strokeColor=#3A5431;" parent="1" vertex="1"><mxGeometry x="659" y="220" width="80" height="50" as="geometry"/></mxCell><mxCell id="3tLK-R1qEs0SOCNm2qtp-46" value="Settle dilemma" style="rounded=0;whiteSpace=wrap;html=1;labelBackgroundColor=none;fontSize=14;fontColor=#ffffff;fillColor=#6d8764;strokeColor=#3A5431;" parent="1" vertex="1"><mxGeometry x="659" y="120" width="80" height="50" as="geometry"/></mxCell><mxCell id="3tLK-R1qEs0SOCNm2qtp-57" style="edgeStyle=orthogonalEdgeStyle;rounded=1;orthogonalLoop=1;jettySize=auto;html=1;entryX=1;entryY=0.5;entryDx=0;entryDy=0;labelBackgroundColor=#CCCCCC;fontSize=14;fontColor=#000000;strokeColor=#49315E;strokeWidth=2;" parent="1" source="3tLK-R1qEs0SOCNm2qtp-50" target="3tLK-R1qEs0SOCNm2qtp-6" edge="1"><mxGeometry relative="1" as="geometry"><Array as="points"><mxPoint x="790" y="355"/><mxPoint x="790" y="490"/></Array></mxGeometry></mxCell><mxCell id="kIARCGmlTcEEu47ndttY-1" style="edgeStyle=orthogonalEdgeStyle;rounded=1;orthogonalLoop=1;jettySize=auto;html=1;strokeWidth=2;fontColor=#49315E;" parent="1" source="3tLK-R1qEs0SOCNm2qtp-50" target="3tLK-R1qEs0SOCNm2qtp-29" edge="1"><mxGeometry relative="1" as="geometry"><mxPoint x="790" y="550" as="targetPoint"/><Array as="points"><mxPoint x="790" y="355"/><mxPoint x="790" y="540"/><mxPoint x="50" y="540"/><mxPoint x="50" y="190"/></Array></mxGeometry></mxCell><mxCell id="kIARCGmlTcEEu47ndttY-2" value="\(\mathbf{a_{l2}} \in \mathbb{A}_{l2}\)" style="edgeStyle=orthogonalEdgeStyle;rounded=1;orthogonalLoop=1;jettySize=auto;html=1;strokeWidth=2;fontColor=#49315E;fontSize=14;labelBackgroundColor=#F5F5F5;" parent="1" source="3tLK-R1qEs0SOCNm2qtp-50" target="3tLK-R1qEs0SOCNm2qtp-12" edge="1"><mxGeometry x="-1" y="-39" relative="1" as="geometry"><Array as="points"><mxPoint x="790" y="355"/><mxPoint x="790" y="540"/><mxPoint x="50" y="540"/><mxPoint x="50" y="120"/></Array><mxPoint x="-39" y="-39" as="offset"/></mxGeometry></mxCell><mxCell id="3tLK-R1qEs0SOCNm2qtp-50" value="Learning agent l2" style="shape=umlFrame;whiteSpace=wrap;html=1;width=121;height=20;fontSize=14;fillColor=#76608a;fontColor=#ffffff;strokeColor=#432D57;" parent="1" vertex="1"><mxGeometry x="419" y="310" width="330" height="90" as="geometry"/></mxCell><mxCell id="3tLK-R1qEs0SOCNm2qtp-51" value="\(\mathbf{o_{l2}} \in \mathbb{O}_{l2}\)" style="edgeStyle=orthogonalEdgeStyle;rounded=1;orthogonalLoop=1;jettySize=auto;html=1;fontSize=12;strokeColor=#8000FF;strokeWidth=2;fillColor=#6a00ff;labelBackgroundColor=#F5F5F5;fontColor=#8000FF;" parent="1" edge="1"><mxGeometry x="1" y="40" relative="1" as="geometry"><Array as="points"><mxPoint x="390" y="490"/><mxPoint x="390" y="390"/></Array><mxPoint x="540" y="490" as="sourcePoint"/><mxPoint x="420" y="390" as="targetPoint"/><mxPoint x="40" y="40" as="offset"/></mxGeometry></mxCell><mxCell id="3tLK-R1qEs0SOCNm2qtp-52" value="\( r_{l2,j2} \in \mathbb{R}\)" style="edgeStyle=orthogonalEdgeStyle;rounded=1;orthogonalLoop=1;jettySize=auto;html=1;fontSize=12;strokeColor=#0080FF;strokeWidth=2;fillColor=#1ba1e2;labelBackgroundColor=#F5F5F5;fontColor=#0080FF;spacingTop=0;" parent="1" source="3tLK-R1qEs0SOCNm2qtp-29" target="3tLK-R1qEs0SOCNm2qtp-50" edge="1"><mxGeometry x="1" y="41" relative="1" as="geometry"><Array as="points"><mxPoint x="250" y="175"/><mxPoint x="250" y="370"/></Array><mxPoint x="139" y="185" as="sourcePoint"/><mxPoint x="449" y="255" as="targetPoint"/><mxPoint x="41" y="41" as="offset"/></mxGeometry></mxCell><mxCell id="3tLK-R1qEs0SOCNm2qtp-53" value="Rewards&lt;br&gt;\(\in \mathbb{R}^{{\left|\mathcal{L}\right|}^m}\)" style="edgeStyle=orthogonalEdgeStyle;rounded=1;orthogonalLoop=1;jettySize=auto;html=1;fontSize=14;strokeColor=#0080FF;strokeWidth=2;fillColor=#1ba1e2;fontColor=#0080FF;labelBackgroundColor=#F5F5F5;" parent="1" source="3tLK-R1qEs0SOCNm2qtp-12" target="3tLK-R1qEs0SOCNm2qtp-50" edge="1"><mxGeometry x="-0.3582" y="30" relative="1" as="geometry"><mxPoint x="139" y="115" as="sourcePoint"/><mxPoint x="449" y="246" as="targetPoint"/><Array as="points"><mxPoint x="270" y="105"/><mxPoint x="270" y="355"/></Array><mxPoint as="offset"/></mxGeometry></mxCell><mxCell id="3tLK-R1qEs0SOCNm2qtp-55" style="edgeStyle=orthogonalEdgeStyle;rounded=1;orthogonalLoop=1;jettySize=auto;html=1;fontSize=14;fontColor=#006600;strokeColor=#006600;strokeWidth=2;" parent="1" source="3tLK-R1qEs0SOCNm2qtp-54" target="3tLK-R1qEs0SOCNm2qtp-50" edge="1"><mxGeometry relative="1" as="geometry"><Array as="points"><mxPoint x="354" y="340"/></Array></mxGeometry></mxCell><mxCell id="3tLK-R1qEs0SOCNm2qtp-54" value="Human&lt;br&gt;User" style="shape=umlActor;verticalLabelPosition=middle;verticalAlign=middle;html=1;outlineConnect=0;fontSize=14;fillColor=#6d8764;fontColor=#006600;strokeColor=#3A5431;labelBackgroundColor=#F5F5F5;labelPosition=left;align=right;" parent="1" vertex="1"><mxGeometry x="339" y="270" width="30" height="60" as="geometry"/></mxCell><mxCell id="3tLK-R1qEs0SOCNm2qtp-56" value="OR" style="text;html=1;strokeColor=none;fillColor=none;align=center;verticalAlign=middle;whiteSpace=wrap;rounded=0;labelBackgroundColor=#F5F5F5;fontSize=14;fontColor=#6D8764;" parent="1" vertex="1"><mxGeometry x="641" y="175" width="60" height="30" as="geometry"/></mxCell><mxCell id="3tLK-R1qEs0SOCNm2qtp-58" value="\(\mathbf{o_{l1}} \in \mathbb{O}_{l1}\)" style="edgeStyle=orthogonalEdgeStyle;rounded=1;orthogonalLoop=1;jettySize=auto;html=1;fontSize=12;strokeColor=#8000FF;strokeWidth=2;fillColor=#6a00ff;entryX=0;entryY=0;entryDx=0;entryDy=34;entryPerimeter=0;fontColor=#8000FF;labelBackgroundColor=#F5F5F5;" parent="1" source="3tLK-R1qEs0SOCNm2qtp-6" target="3tLK-R1qEs0SOCNm2qtp-37" edge="1"><mxGeometry x="0.6816" y="-30" relative="1" as="geometry"><Array as="points"><mxPoint x="390" y="490"/><mxPoint x="390" y="154"/></Array><mxPoint x="549" y="500" as="sourcePoint"/><mxPoint x="449" y="270" as="targetPoint"/><mxPoint as="offset"/></mxGeometry></mxCell><mxCell id="2" value="\(r_{l2,j1} \in \mathbb{R}\)" style="text;html=1;align=center;verticalAlign=middle;resizable=0;points=[];autosize=1;strokeColor=none;fillColor=none;fontSize=12;fontColor=#0080FF;labelBackgroundColor=#F5F5F5;" vertex="1" parent="1"><mxGeometry x="384" y="343" width="150" height="20" as="geometry"/></mxCell><mxCell id="3" value="\( (\mathbf{o_{l1}}, \mathbf{o_{l2}} ) \)" style="text;html=1;align=center;verticalAlign=middle;resizable=0;points=[];autosize=1;strokeColor=none;fillColor=none;fontSize=12;fontColor=#8000FF;labelBackgroundColor=#F5F5F5;" vertex="1" parent="1"><mxGeometry y="100" width="210" height="20" as="geometry"/></mxCell><mxCell id="4" value="\( (\mathbf{a_{l1}}, \mathbf{a_{l2}} ) \)" style="text;html=1;align=center;verticalAlign=middle;resizable=0;points=[];autosize=1;strokeColor=none;fillColor=none;fontSize=12;fontColor=#49315E;labelBackgroundColor=#F5F5F5;" vertex="1" parent="1"><mxGeometry y="117" width="210" height="20" as="geometry"/></mxCell><mxCell id="5" value="\( (\mathbf{o_{l1}}, \mathbf{o_{l2}} ) \)" style="text;html=1;align=center;verticalAlign=middle;resizable=0;points=[];autosize=1;strokeColor=none;fillColor=none;fontSize=12;fontColor=#8000FF;labelBackgroundColor=#F5F5F5;" vertex="1" parent="1"><mxGeometry y="168" width="210" height="20" as="geometry"/></mxCell><mxCell id="6" value="\( (\mathbf{a_{l1}}, \mathbf{a_{l2}} ) \)" style="text;html=1;align=center;verticalAlign=middle;resizable=0;points=[];autosize=1;strokeColor=none;fillColor=none;fontSize=12;fontColor=#49315E;labelBackgroundColor=#F5F5F5;" vertex="1" parent="1"><mxGeometry y="185" width="210" height="20" as="geometry"/></mxCell></root></mxGraphModel></diagram></mxfile>